ffmpeg started on 2025-06-27 at 11:56:24
Report written to "D:\Convert\FFMetrics\reports\ssim_report-6.txt"
Log level: 32
Command line:
ffmpeg -hide_banner -nostdin -i "G:\\\xc0\xed\xe8\xec\xe5\\[\xd2\xee\xef]\\\xc2\xee\xeb\xf7\xe8\xf6\xe0 \xe8 \xef\xf0\xff\xed\xee\xf1\xf2\xe8\\\xd2\xc2-1\\BD Menu\\Spice and wolf - BD menu (vol.3)_HEVC.mkv" -i "G:\\\xc0\xed\xe8\xec\xe5\\[\xd2\xee\xef]\\\xc2\xee\xeb\xf7\xe8\xf6\xe0 \xe8 \xef\xf0\xff\xed\xee\xf1\xf2\xe8\\\xd2\xc2-1\\BD Menu\\Spice and wolf - BD menu (vol.3).mp4" -lavfi "[0:v]settb=AVTB,setpts=PTS-STARTPTS,format=pix_fmts=yuv420p10,fps=25/1,scale=1280:720:flags=bicubic[main];[1:v]settb=AVTB,setpts=PTS-STARTPTS,format=pix_fmts=yuv420p10,fps=25/1,scale=1280:720:flags=bicubic[ref];[main][ref]ssim=eof_action=endall:stats_file='D\\:/Convert/FFMetrics/logs/ssim_logfile-6.txt'" -f null -
Input #0, matroska,webm, from 'G:\Аниме\[Топ]\Волчица и пряности\ТВ-1\BD Menu\Spice and wolf - BD menu (vol.3)_HEVC.mkv':
  Metadata:
    COMPATIBLE_BRANDS: isomiso2avc1mp41
    MAJOR_BRAND     : isom
    MINOR_VERSION   : 512
    ENCODER         : Lavf61.7.100
  Duration: 00:01:30.08, start: -0.021000, bitrate: 474 kb/s
  Stream #0:0(jpn): Video: hevc (Main 10), yuv420p10le(tv, bt709, progressive), 1280x720 [SAR 1:1 DAR 16:9], 25 fps, 25 tbr, 1k tbn (default)
      Metadata:
        HANDLER_NAME    : VideoHandler
        VENDOR_ID       : [0][0][0][0]
        ENCODER         : Lavc61.19.100 libx265
        BPS             : 289957
        DURATION        : 00:01:30.080000000
        NUMBER_OF_FRAMES: 2252
        NUMBER_OF_BYTES : 3264921
        _STATISTICS_WRITING_APP: mkvpropedit v66.0.0 ('Josie') 64-bit
        _STATISTICS_WRITING_DATE_UTC: 2025-06-27 08:11:16
        _STATISTICS_TAGS: BPS DURATION NUMBER_OF_FRAMES NUMBER_OF_BYTES
  Stream #0:1(jpn): Audio: aac (LC), 48000 Hz, mono, fltp (default)
      Metadata:
        HANDLER_NAME    : SoundHandler
        VENDOR_ID       : [0][0][0][0]
        ENCODER         : Lavc61.19.100 aac
        BPS             : 179768
        DURATION        : 00:01:30.026000000
        NUMBER_OF_FRAMES: 4221
        NUMBER_OF_BYTES : 2022983
        _STATISTICS_WRITING_APP: mkvpropedit v66.0.0 ('Josie') 64-bit
        _STATISTICS_WRITING_DATE_UTC: 2025-06-27 08:11:16
        _STATISTICS_TAGS: BPS DURATION NUMBER_OF_FRAMES NUMBER_OF_BYTES
Input #1, mov,mp4,m4a,3gp,3g2,mj2, from 'G:\Аниме\[Топ]\Волчица и пряности\ТВ-1\BD Menu\Spice and wolf - BD menu (vol.3).mp4':
  Metadata:
    major_brand     : isom
    minor_version   : 512
    compatible_brands: isomiso2avc1mp41
    encoder         : Lavf58.27.102
  Duration: 00:01:30.08, start: 0.000000, bitrate: 1337 kb/s
  Stream #1:0[0x1](jpn): Video: h264 (High 10) (avc1 / 0x31637661), yuv420p10le(progressive), 1280x720 [SAR 1:1 DAR 16:9], 1267 kb/s, 25 fps, 25 tbr, 12800 tbn (default)
      Metadata:
        handler_name    : VideoHandler
        vendor_id       : [0][0][0][0]
  Stream #1:1[0x2](jpn): Audio: aac (LC) (mp4a / 0x6134706D), 44100 Hz, mono, fltp, 64 kb/s (default)
      Metadata:
        handler_name    : SoundHandler
        vendor_id       : [0][0][0][0]
Stream mapping:
  Stream #0:0 (hevc) -> settb:default
  Stream #1:0 (h264) -> settb:default
  ssim:default -> Stream #0:0 (wrapped_avframe)
  Stream #0:1 -> #0:1 (aac (native) -> pcm_s16le (native))
Output #0, null, to 'pipe:':
  Metadata:
    COMPATIBLE_BRANDS: isomiso2avc1mp41
    MAJOR_BRAND     : isom
    MINOR_VERSION   : 512
    encoder         : Lavf61.7.100
  Stream #0:0: Video: wrapped_avframe, yuv420p10le(tv, bt709, progressive), 1280x720 [SAR 1:1 DAR 16:9], q=2-31, 200 kb/s, 25 fps, 25 tbn
      Metadata:
        encoder         : Lavc61.19.100 wrapped_avframe
  Stream #0:1(jpn): Audio: pcm_s16le, 48000 Hz, mono, s16, 768 kb/s (default)
      Metadata:
        HANDLER_NAME    : SoundHandler
        VENDOR_ID       : [0][0][0][0]
        _STATISTICS_TAGS: BPS DURATION NUMBER_OF_FRAMES NUMBER_OF_BYTES
        BPS             : 179768
        DURATION        : 00:01:30.026000000
        NUMBER_OF_FRAMES: 4221
        NUMBER_OF_BYTES : 2022983
        _STATISTICS_WRITING_APP: mkvpropedit v66.0.0 ('Josie') 64-bit
        _STATISTICS_WRITING_DATE_UTC: 2025-06-27 08:11:16
        encoder         : Lavc61.19.100 pcm_s16le
frame=   42 fps=0.0 q=-0.0 size=N/A time=00:00:01.68 bitrate=N/A speed=3.21x    frame=   75 fps= 73 q=-0.0 size=N/A time=00:00:03.00 bitrate=N/A speed=2.91x    frame=  135 fps= 87 q=-0.0 size=N/A time=00:00:05.40 bitrate=N/A speed=3.47x    frame=  182 fps= 88 q=-0.0 size=N/A time=00:00:07.28 bitrate=N/A speed=3.52x    frame=  226 fps= 88 q=-0.0 size=N/A time=00:00:09.04 bitrate=N/A speed=3.51x    frame=  267 fps= 86 q=-0.0 size=N/A time=00:00:10.68 bitrate=N/A speed=3.45x    frame=  323 fps= 89 q=-0.0 size=N/A time=00:00:12.92 bitrate=N/A speed=3.58x    frame=  371 fps= 90 q=-0.0 size=N/A time=00:00:14.84 bitrate=N/A speed=3.59x    frame=  408 fps= 88 q=-0.0 size=N/A time=00:00:16.32 bitrate=N/A speed=3.51x    frame=  465 fps= 90 q=-0.0 size=N/A time=00:00:18.60 bitrate=N/A speed=3.61x    frame=  507 fps= 89 q=-0.0 size=N/A time=00:00:20.28 bitrate=N/A speed=3.57x    frame=  560 fps= 91 q=-0.0 size=N/A time=00:00:22.40 bitrate=N/A speed=3.62x    frame=  608 fps= 91 q=-0.0 size=N/A time=00:00:24.32 bitrate=N/A speed=3.62x    frame=  651 fps= 90 q=-0.0 size=N/A time=00:00:26.04 bitrate=N/A speed=3.61x    frame=  699 fps= 90 q=-0.0 size=N/A time=00:00:27.96 bitrate=N/A speed=3.61x    frame=  751 fps= 91 q=-0.0 size=N/A time=00:00:30.04 bitrate=N/A speed=3.64x    frame=  799 fps= 91 q=-0.0 size=N/A time=00:00:31.96 bitrate=N/A speed=3.65x    frame=  840 fps= 90 q=-0.0 size=N/A time=00:00:33.60 bitrate=N/A speed=3.62x    frame=  895 fps= 91 q=-0.0 size=N/A time=00:00:35.80 bitrate=N/A speed=3.65x    frame=  942 fps= 91 q=-0.0 size=N/A time=00:00:37.68 bitrate=N/A speed=3.65x    frame=  990 fps= 91 q=-0.0 size=N/A time=00:00:39.60 bitrate=N/A speed=3.65x    frame= 1030 fps= 91 q=-0.0 size=N/A time=00:00:41.20 bitrate=N/A speed=3.63x    frame= 1087 fps= 92 q=-0.0 size=N/A time=00:00:43.48 bitrate=N/A speed=3.66x    frame= 1130 fps= 91 q=-0.0 size=N/A time=00:00:45.20 bitrate=N/A speed=3.65x    frame= 1180 fps= 91 q=-0.0 size=N/A time=00:00:47.20 bitrate=N/A speed=3.66x    frame= 1230 fps= 92 q=-0.0 size=N/A time=00:00:49.20 bitrate=N/A speed=3.67x    frame= 1278 fps= 92 q=-0.0 size=N/A time=00:00:51.12 bitrate=N/A speed=3.67x    frame= 1326 fps= 92 q=-0.0 size=N/A time=00:00:53.04 bitrate=N/A speed=3.67x    frame= 1374 fps= 92 q=-0.0 size=N/A time=00:00:54.96 bitrate=N/A speed=3.67x    frame= 1415 fps= 91 q=-0.0 size=N/A time=00:00:56.60 bitrate=N/A speed=3.66x    frame= 1467 fps= 92 q=-0.0 size=N/A time=00:00:58.68 bitrate=N/A speed=3.67x    frame= 1517 fps= 92 q=-0.0 size=N/A time=00:01:00.68 bitrate=N/A speed=3.68x    frame= 1565 fps= 92 q=-0.0 size=N/A time=00:01:02.60 bitrate=N/A speed=3.68x    frame= 1611 fps= 92 q=-0.0 size=N/A time=00:01:04.44 bitrate=N/A speed=3.68x    frame= 1659 fps= 92 q=-0.0 size=N/A time=00:01:06.36 bitrate=N/A speed=3.68x    frame= 1700 fps= 92 q=-0.0 size=N/A time=00:01:08.00 bitrate=N/A speed=3.66x    frame= 1754 fps= 92 q=-0.0 size=N/A time=00:01:10.16 bitrate=N/A speed=3.68x    frame= 1800 fps= 92 q=-0.0 size=N/A time=00:01:12.00 bitrate=N/A speed=3.67x    frame= 1852 fps= 92 q=-0.0 size=N/A time=00:01:14.08 bitrate=N/A speed=3.68x    frame= 1902 fps= 92 q=-0.0 size=N/A time=00:01:16.08 bitrate=N/A speed=3.68x    frame= 1948 fps= 92 q=-0.0 size=N/A time=00:01:17.92 bitrate=N/A speed=3.68x    frame= 1994 fps= 92 q=-0.0 size=N/A time=00:01:19.76 bitrate=N/A speed=3.68x    frame= 2042 fps= 92 q=-0.0 size=N/A time=00:01:21.68 bitrate=N/A speed=3.68x    frame= 2089 fps= 92 q=-0.0 size=N/A time=00:01:23.56 bitrate=N/A speed=3.68x    frame= 2138 fps= 92 q=-0.0 size=N/A time=00:01:25.52 bitrate=N/A speed=3.68x    frame= 2186 fps= 92 q=-0.0 size=N/A time=00:01:27.44 bitrate=N/A speed=3.68x    frame= 2224 fps= 92 q=-0.0 size=N/A time=00:01:28.96 bitrate=N/A speed=3.67x    [Parsed_ssim_10 @ 0000015f63161300] SSIM Y:0.992531 (21.267597) U:0.991288 (20.599004) V:0.991702 (20.810044) All:0.992186 (21.071217)
[out#0/null @ 0000015f631d6000] video:968KiB audio:8442KiB subtitle:0KiB other streams:0KiB global headers:0KiB muxing overhead: unknown
frame= 2252 fps= 92 q=-0.0 Lsize=N/A time=00:01:30.04 bitrate=N/A speed=3.68x    
